<svg xmlns="http://www.w3.org/2000/svg" viewBox="0 15.449999809265137 306.010009765625 38.47999954223633" data-asc="1.06884765625"><g fill="#ffffff"><g fill="#ffffff" transform="translate(0, 0)"><path d="M23.27 43.53Q23.27 46.70 21.73 49.05Q20.19 51.39 17.25 52.66Q14.31 53.93 10.11 53.93Q8.25 53.93 6.48 53.69Q4.71 53.44 3.09 52.97Q1.46 52.49 0 51.78L0 44.75Q2.54 45.87 5.27 46.78Q8.01 47.68 10.69 47.68Q12.55 47.68 13.68 47.19Q14.82 46.70 15.33 45.85Q15.84 45.00 15.84 43.90Q15.84 42.55 14.94 41.60Q14.04 40.65 12.46 39.82Q10.89 38.99 8.91 38.04Q7.67 37.45 6.20 36.61Q4.74 35.77 3.42 34.55Q2.10 33.33 1.26 31.58Q0.42 29.83 0.42 27.39Q0.42 24.19 1.88 21.92Q3.34 19.65 6.07 18.44Q8.79 17.24 12.50 17.24Q15.28 17.24 17.81 17.88Q20.34 18.53 23.10 19.75L20.65 25.63Q18.19 24.63 16.24 24.08Q14.28 23.54 12.26 23.54Q10.84 23.54 9.84 23.99Q8.84 24.44 8.33 25.26Q7.81 26.07 7.81 27.15Q7.81 28.42 8.56 29.28Q9.30 30.15 10.80 30.96Q12.30 31.76 14.55 32.84Q17.29 34.13 19.23 35.53Q21.17 36.94 22.22 38.83Q23.27 40.72 23.27 43.53ZM40.65 48.00Q41.87 48.00 43.03 47.75Q44.19 47.51 45.34 47.14L45.34 52.69Q44.14 53.22 42.37 53.58Q40.60 53.93 38.50 53.93Q36.06 53.93 34.12 53.14Q32.18 52.34 31.07 50.38Q29.96 48.41 29.96 44.90L29.96 31.74L26.39 31.74L26.39 28.59L30.49 26.10L32.64 20.34L37.40 20.34L37.40 26.15L45.04 26.15L45.04 31.74L37.40 31.74L37.40 44.90Q37.40 46.46 38.29 47.23Q39.18 48.00 40.65 48.00ZM75.66 39.75Q75.66 43.16 74.74 45.80Q73.83 48.44 72.08 50.26Q70.34 52.08 67.88 53.00Q65.43 53.93 62.35 53.93Q59.47 53.93 57.07 53.00Q54.66 52.08 52.89 50.26Q51.12 48.44 50.16 45.80Q49.19 43.16 49.19 39.75Q49.19 35.21 50.81 32.06Q52.42 28.91 55.40 27.27Q58.37 25.63 62.50 25.63Q66.33 25.63 69.30 27.27Q72.27 28.91 73.96 32.06Q75.66 35.21 75.66 39.75M56.79 39.75Q56.79 42.43 57.37 44.26Q57.96 46.09 59.20 47.02Q60.45 47.95 62.45 47.95Q64.43 47.95 65.66 47.02Q66.89 46.09 67.47 44.26Q68.04 42.43 68.04 39.75Q68.04 37.04 67.47 35.24Q66.89 33.45 65.65 32.54Q64.40 31.64 62.40 31.64Q59.45 31.64 58.12 33.67Q56.79 35.69 56.79 39.75ZM92.90 53.93Q88.84 53.93 85.99 52.45Q83.13 50.98 81.64 47.88Q80.15 44.78 80.15 39.94Q80.15 34.94 81.85 31.77Q83.54 28.61 86.56 27.12Q89.58 25.63 93.55 25.63Q96.39 25.63 98.45 26.18Q100.51 26.73 102.05 27.49L99.85 33.25Q98.10 32.54 96.58 32.09Q95.07 31.64 93.55 31.64Q91.60 31.64 90.31 32.56Q89.01 33.47 88.38 35.30Q87.74 37.13 87.74 39.89Q87.74 42.60 88.43 44.38Q89.11 46.17 90.41 47.03Q91.70 47.90 93.55 47.90Q95.87 47.90 97.68 47.28Q99.49 46.66 101.20 45.53L101.20 51.90Q99.49 52.98 97.62 53.45Q95.75 53.93 92.90 53.93ZM114.97 15.45L114.97 32.45Q114.97 33.98 114.84 35.52Q114.72 37.06 114.58 38.60L114.67 38.60Q115.43 37.52 116.22 36.47Q117.02 35.42 117.92 34.45L125.56 26.15L133.96 26.15L123.12 37.99L134.62 53.44L126.03 53.44L118.16 42.38L114.97 44.95L114.97 53.44L107.52 53.44L107.52 15.45L114.97 15.45ZM173.95 53.44L171.36 44.95L158.35 44.95L155.76 53.44L147.61 53.44L160.21 17.60L169.46 17.60L182.10 53.44L173.95 53.44M169.56 38.60L166.97 30.30Q166.72 29.47 166.32 28.16Q165.92 26.86 165.52 25.50Q165.11 24.15 164.87 23.14Q164.62 24.15 164.20 25.62Q163.77 27.10 163.38 28.42Q162.99 29.74 162.82 30.30L160.25 38.60L169.56 38.60ZM205.05 45.34Q205.05 48.12 203.75 50.04Q202.44 51.95 199.85 52.94Q197.27 53.93 193.41 53.93Q190.55 53.93 188.51 53.56Q186.47 53.20 184.40 52.34L184.40 46.19Q186.62 47.19 189.17 47.84Q191.72 48.49 193.65 48.49Q195.83 48.49 196.77 47.84Q197.71 47.19 197.71 46.14Q197.71 45.46 197.33 44.91Q196.95 44.36 195.70 43.66Q194.46 42.97 191.80 41.85Q189.23 40.77 187.59 39.67Q185.94 38.57 185.14 37.07Q184.35 35.57 184.35 33.25Q184.35 29.47 187.29 27.55Q190.23 25.63 195.17 25.63Q197.71 25.63 200.01 26.15Q202.32 26.66 204.76 27.78L202.51 33.15Q200.49 32.28 198.69 31.71Q196.90 31.15 195.04 31.15Q193.41 31.15 192.58 31.59Q191.75 32.03 191.75 32.93Q191.75 33.59 192.18 34.11Q192.60 34.62 193.84 35.24Q195.07 35.86 197.46 36.84Q199.78 37.79 201.49 38.83Q203.20 39.87 204.13 41.39Q205.05 42.92 205.05 45.34ZM229.91 45.34Q229.91 48.12 228.60 50.04Q227.29 51.95 224.71 52.94Q222.12 53.93 218.26 53.93Q215.41 53.93 213.37 53.56Q211.33 53.20 209.25 52.34L209.25 46.19Q211.47 47.19 214.03 47.84Q216.58 48.49 218.51 48.49Q220.68 48.49 221.62 47.84Q222.56 47.19 222.56 46.14Q222.56 45.46 222.18 44.91Q221.80 44.36 220.56 43.66Q219.31 42.97 216.65 41.85Q214.09 40.77 212.44 39.67Q210.79 38.57 210.00 37.07Q209.20 35.57 209.20 33.25Q209.20 29.47 212.15 27.55Q215.09 25.63 220.02 25.63Q222.56 25.63 224.87 26.15Q227.17 26.66 229.61 27.78L227.37 33.15Q225.34 32.28 223.55 31.71Q221.75 31.15 219.90 31.15Q218.26 31.15 217.43 31.59Q216.60 32.03 216.60 32.93Q216.60 33.59 217.03 34.11Q217.46 34.62 218.69 35.24Q219.92 35.86 222.31 36.84Q224.63 37.79 226.34 38.83Q228.05 39.87 228.98 41.39Q229.91 42.92 229.91 45.34ZM246.97 25.63Q250.76 25.63 253.49 27.09Q256.23 28.54 257.71 31.30Q259.20 34.06 259.20 38.04L259.20 41.65L241.60 41.65Q241.72 44.80 243.49 46.59Q245.26 48.39 248.41 48.39Q251.03 48.39 253.20 47.85Q255.37 47.31 257.67 46.24L257.67 52.00Q255.64 53.00 253.43 53.47Q251.22 53.93 248.07 53.93Q243.97 53.93 240.81 52.42Q237.65 50.90 235.85 47.80Q234.06 44.70 234.06 39.99Q234.06 35.21 235.68 32.02Q237.30 28.83 240.21 27.23Q243.12 25.63 246.97 25.63M247.02 30.93Q244.85 30.93 243.42 32.32Q241.99 33.72 241.77 36.69L252.22 36.69Q252.20 35.03 251.62 33.74Q251.05 32.45 249.91 31.69Q248.78 30.93 247.02 30.93ZM276.76 48.00Q277.98 48.00 279.14 47.75Q280.30 47.51 281.45 47.14L281.45 52.69Q280.25 53.22 278.48 53.58Q276.71 53.93 274.61 53.93Q272.17 53.93 270.23 53.14Q268.29 52.34 267.18 50.38Q266.06 48.41 266.06 44.90L266.06 31.74L262.50 31.74L262.50 28.59L266.60 26.10L268.75 20.34L273.51 20.34L273.51 26.15L281.15 26.15L281.15 31.74L273.51 31.74L273.51 44.90Q273.51 46.46 274.40 47.23Q275.29 48.00 276.76 48.00ZM306.01 45.34Q306.01 48.12 304.70 50.04Q303.39 51.95 300.81 52.94Q298.22 53.93 294.36 53.93Q291.50 53.93 289.47 53.56Q287.43 53.20 285.35 52.34L285.35 46.19Q287.57 47.19 290.12 47.84Q292.68 48.49 294.60 48.49Q296.78 48.49 297.72 47.84Q298.66 47.19 298.66 46.14Q298.66 45.46 298.28 44.91Q297.90 44.36 296.66 43.66Q295.41 42.97 292.75 41.85Q290.19 40.77 288.54 39.67Q286.89 38.57 286.10 37.07Q285.30 35.57 285.30 33.25Q285.30 29.47 288.24 27.55Q291.19 25.63 296.12 25.63Q298.66 25.63 300.96 26.15Q303.27 26.66 305.71 27.78L303.47 33.15Q301.44 32.28 299.65 31.71Q297.85 31.15 296.00 31.15Q294.36 31.15 293.53 31.59Q292.70 32.03 292.70 32.93Q292.70 33.59 293.13 34.11Q293.55 34.62 294.79 35.24Q296.02 35.86 298.41 36.84Q300.73 37.79 302.44 38.83Q304.15 39.87 305.08 41.39Q306.01 42.92 306.01 45.34Z"/></g><g fill="#ffffff" transform="translate(0, 77.578125)"><path d=""/></g></g></svg>